# xmcd
#
# Track frame offsets: 
#        150
#        15624
#        32460
#        44708
#        58503
#        70309
#        83352
#        99815
#        110737
#        123185
#        140292
#        154005
#        177659
#        195425
#
# Disc length: 2867 seconds
#
# Revision: 1
# Processed by: cddbd v1.5.1PL0 Copyright (c) Steve Scherf et al.
# Submitted via: ExactAudioCopy v0.95a5
#
DISCID=af0b310e
DTITLE=Hacienda Brothers - Hacienda Brothers
DYEAR=2005
DGENRE=Country
TTITLE0=She's Gone
TTITLE1=Mental Revenge
TTITLE2=Leavin' on My Mind
TTITLE3=I'm So Proud
TTITLE4=South of Lonesome
TTITLE5=Looking for Loneliness
TTITLE6=Walkin' on my Dreams
TTITLE7=Railed
TTITLE8=No Time to Waste
TTITLE9=The Years That Got Away
TTITLE10=Seven Little Numbers
TTITLE11=I've Got a Secret
TTITLE12=Turn to Grey
TTITLE13=Saguaro
EXTD=
EXTT0=
EXTT1=
EXTT2=
EXTT3=
EXTT4=
EXTT5=
EXTT6=
EXTT7=
EXTT8=
EXTT9=
EXTT10=
EXTT11=
EXTT12=
EXTT13=
PLAYORDER=
